<mxfile host="app.diagrams.net" modified="2021-04-12T05:53:38.750Z" agent="5.0 (Windows NT 10.0; Win64; x64) AppleWebKit/537.36 (KHTML, like Gecko) Chrome/89.0.4389.114 Safari/537.36" etag="xco5KIHEJDHLuLwUB147" version="14.5.1" type="github">
  <diagram id="U2s2qpfkrJlVefAINCj7" name="Page-1">
    <mxGraphModel dx="1038" dy="548" grid="1" gridSize="10" guides="1" tooltips="1" connect="1" arrows="1" fold="1" page="1" pageScale="1" pageWidth="850" pageHeight="1100" math="0" shadow="0">
      <root>
        <mxCell id="0" />
        <mxCell id="1" parent="0" />
        <mxCell id="e83pzPR838Jntq9zoFIj-7" value="" style="edgeStyle=orthogonalEdgeStyle;rounded=0;orthogonalLoop=1;jettySize=auto;html=1;" edge="1" parent="1" source="e83pzPR838Jntq9zoFIj-1" target="e83pzPR838Jntq9zoFIj-3">
          <mxGeometry relative="1" as="geometry" />
        </mxCell>
        <mxCell id="e83pzPR838Jntq9zoFIj-1" value="开始" style="strokeWidth=2;html=1;shape=mxgraph.flowchart.start_1;whiteSpace=wrap;" vertex="1" parent="1">
          <mxGeometry x="200" y="40" width="120" height="50" as="geometry" />
        </mxCell>
        <mxCell id="e83pzPR838Jntq9zoFIj-2" value="结束" style="strokeWidth=2;html=1;shape=mxgraph.flowchart.start_1;whiteSpace=wrap;" vertex="1" parent="1">
          <mxGeometry x="200" y="490" width="120" height="50" as="geometry" />
        </mxCell>
        <mxCell id="e83pzPR838Jntq9zoFIj-8" value="" style="edgeStyle=orthogonalEdgeStyle;rounded=0;orthogonalLoop=1;jettySize=auto;html=1;" edge="1" parent="1" source="e83pzPR838Jntq9zoFIj-3" target="e83pzPR838Jntq9zoFIj-4">
          <mxGeometry relative="1" as="geometry" />
        </mxCell>
        <mxCell id="e83pzPR838Jntq9zoFIj-3" value="输入n, k&lt;span style=&quot;color: rgba(0 , 0 , 0 , 0) ; font-family: monospace ; font-size: 0px&quot;&gt;%3CmxGraphModel%3E%3Croot%3E%3CmxCell%20id%3D%220%22%2F%3E%3CmxCell%20id%3D%221%22%20parent%3D%220%22%2F%3E%3CmxCell%20id%3D%222%22%20value%3D%22%E5%BC%80%E5%A7%8B%22%20style%3D%22strokeWidth%3D2%3Bhtml%3D1%3Bshape%3Dmxgraph.flowchart.start_1%3BwhiteSpace%3Dwrap%3B%22%20vertex%3D%221%22%20parent%3D%221%22%3E%3CmxGeometry%20x%3D%22200%22%20y%3D%2240%22%20width%3D%22120%22%20height%3D%2250%22%20as%3D%22geometry%22%2F%3E%3C%2FmxCell%3E%3C%2Froot%3E%3C%2FmxGraphModel%3E&lt;/span&gt;" style="shape=parallelogram;html=1;strokeWidth=2;perimeter=parallelogramPerimeter;whiteSpace=wrap;rounded=1;arcSize=12;size=0.23;" vertex="1" parent="1">
          <mxGeometry x="200" y="130" width="120" height="50" as="geometry" />
        </mxCell>
        <mxCell id="e83pzPR838Jntq9zoFIj-9" value="" style="edgeStyle=orthogonalEdgeStyle;rounded=0;orthogonalLoop=1;jettySize=auto;html=1;" edge="1" parent="1" source="e83pzPR838Jntq9zoFIj-4" target="e83pzPR838Jntq9zoFIj-5">
          <mxGeometry relative="1" as="geometry" />
        </mxCell>
        <mxCell id="e83pzPR838Jntq9zoFIj-4" value="输入n个学生的&lt;br&gt;学号和成绩&lt;span style=&quot;color: rgba(0 , 0 , 0 , 0) ; font-family: monospace ; font-size: 0px&quot;&gt;%3CmxGraphModel%3E%3Croot%3E%3CmxCell%20id%3D%220%22%2F%3E%3CmxCell%20id%3D%221%22%20parent%3D%220%22%2F%3E%3CmxCell%20id%3D%222%22%20value%3D%22%E5%BC%80%E5%A7%8B%22%20style%3D%22strokeWidth%3D2%3Bhtml%3D1%3Bshape%3Dmxgraph.flowchart.start_1%3BwhiteSpace%3Dwrap%3B%22%20vertex%3D%221%22%20parent%3D%221%22%3E%3CmxGeometry%20x%3D%22200%22%20y%3D%2240%22%20width%3D%22120%22%20height%3D%2250%22%20as%3D%22geometry%22%2F%3E%3C%2FmxCell%3E%3C%2Froot%3E%3C%2FmxGraphModel%3E&lt;/span&gt;" style="shape=parallelogram;html=1;strokeWidth=2;perimeter=parallelogramPerimeter;whiteSpace=wrap;rounded=1;arcSize=12;size=0.23;" vertex="1" parent="1">
          <mxGeometry x="200" y="220" width="120" height="50" as="geometry" />
        </mxCell>
        <mxCell id="e83pzPR838Jntq9zoFIj-10" value="" style="edgeStyle=orthogonalEdgeStyle;rounded=0;orthogonalLoop=1;jettySize=auto;html=1;" edge="1" parent="1" source="e83pzPR838Jntq9zoFIj-5" target="e83pzPR838Jntq9zoFIj-6">
          <mxGeometry relative="1" as="geometry" />
        </mxCell>
        <mxCell id="e83pzPR838Jntq9zoFIj-5" value="将学生按成绩排序&lt;br&gt;（注意从大到小排）" style="rounded=1;whiteSpace=wrap;html=1;strokeWidth=2;" vertex="1" parent="1">
          <mxGeometry x="200" y="310" width="120" height="50" as="geometry" />
        </mxCell>
        <mxCell id="e83pzPR838Jntq9zoFIj-11" value="" style="edgeStyle=orthogonalEdgeStyle;rounded=0;orthogonalLoop=1;jettySize=auto;html=1;" edge="1" parent="1" source="e83pzPR838Jntq9zoFIj-6" target="e83pzPR838Jntq9zoFIj-2">
          <mxGeometry relative="1" as="geometry" />
        </mxCell>
        <mxCell id="e83pzPR838Jntq9zoFIj-6" value="输出第k名学生的&lt;br&gt;学号和成绩" style="shape=parallelogram;html=1;strokeWidth=2;perimeter=parallelogramPerimeter;whiteSpace=wrap;rounded=1;arcSize=12;size=0.23;" vertex="1" parent="1">
          <mxGeometry x="200" y="400" width="120" height="50" as="geometry" />
        </mxCell>
      </root>
    </mxGraphModel>
  </diagram>
</mxfile>
